# xmcd CD database file
#
# Track frame offsets:
#	150
#	13468
#	32318
#	46205
#	59215
#	77390
#	93250
#	108045
#	126708
#	142508
#
# Disc length: 2115 seconds
#
# Revision: 0
# Processed by: cddbd v1.5.2PL0 Copyright (c) Steve Scherf et al.
# Submitted via: CDex 1.77
#
DISCID=7908410a
DTITLE=Bob Dilly - I'd Like To Write Myself A Song
DYEAR=1992
DGENRE=Country
TTITLE0=If You Should Fall
TTITLE1=I'm Hurting Only Me
TTITLE2=I'd Like To Write Myself A Song
TTITLE3=I Want To Hold You Until You Go
TTITLE4=I'll Spend Eternity With You
TTITLE5=Are You Gonna Go
TTITLE6=I'm Drinkin Again
TTITLE7=I'd Like To Please You
TTITLE8=Carman
TTITLE9=I Gotta Have More Of You
EXTD=YEAR: 1992
EXTT0=
EXTT1=
EXTT2=
EXTT3=
EXTT4=
EXTT5=
EXTT6=
EXTT7=
EXTT8=
EXTT9=
PLAYORDER=
